<?xml version="1.0" encoding="UTF-8" standalone="no"?>
<!-- Created with Inkscape (http://www.inkscape.org/) -->

<svg
   xmlns:dc="http://purl.org/dc/elements/1.1/"
   xmlns:cc="http://creativecommons.org/ns#"
   xmlns:rdf="http://www.w3.org/1999/02/22-rdf-syntax-ns#"
   xmlns:svg="http://www.w3.org/2000/svg"
   xmlns="http://www.w3.org/2000/svg"
   xmlns:sodipodi="http://sodipodi.sourceforge.net/DTD/sodipodi-0.dtd"
   xmlns:inkscape="http://www.inkscape.org/namespaces/inkscape"
   width="614.28571"
   height="352.85715"
   viewBox="0 0 162.52975 93.360122"
   version="1.1"
   id="svg8"
   inkscape:version="0.92.4 (5da689c313, 2019-01-14)"
   sodipodi:docname="Step2.svg">
  <defs
     id="defs2" />
  <sodipodi:namedview
     id="base"
     pagecolor="#ffffff"
     bordercolor="#666666"
     borderopacity="1.0"
     inkscape:pageopacity="0.0"
     inkscape:pageshadow="2"
     inkscape:zoom="1.4"
     inkscape:cx="68.444597"
     inkscape:cy="162.98818"
     inkscape:document-units="px"
     inkscape:current-layer="layer1"
     showgrid="false"
     units="px"
     inkscape:window-width="1920"
     inkscape:window-height="1013"
     inkscape:window-x="-9"
     inkscape:window-y="-9"
     inkscape:window-maximized="1"
     fit-margin-top="0"
     fit-margin-left="0"
     fit-margin-right="0"
     fit-margin-bottom="0" />
  <metadata
     id="metadata5">
    <rdf:RDF>
      <cc:Work
         rdf:about="">
        <dc:format>image/svg+xml</dc:format>
        <dc:type
           rdf:resource="http://purl.org/dc/dcmitype/StillImage" />
        <dc:title></dc:title>
      </cc:Work>
    </rdf:RDF>
  </metadata>
  <g
     inkscape:label="Layer 1"
     inkscape:groupmode="layer"
     id="layer1"
     transform="translate(-19.65476,-98.75148)">
    <rect
       style="fill:#f9f9f9;fill-opacity:1;stroke:none;stroke-width:0.08701872;stroke-miterlimit:4;stroke-dasharray:none;stroke-opacity:1"
       id="rect819"
       width="162.52975"
       height="93.360123"
       x="19.65476"
       y="98.75148" />
    <g
       id="g844"
       transform="matrix(2.603311,0,0,2.603311,39.914286,110.50655)">
      <g
         id="g823">
        <rect
           id="rect821"
           width="24"
           height="24"
           x="0"
           y="0"
           style="fill:none" />
      </g>
      <g
         id="g829">
        <g
           id="g825" />
        <path
           id="path827"
           d="M 12,3 C 11.54,3 11.07,3.04 10.6,3.14 7.84,3.67 5.64,5.9 5.12,8.66 4.64,11.27 5.6,13.67 7.34,15.22 7.77,15.6 8,16.13 8,16.69 V 19 c 0,1.1 0.9,2 2,2 h 0.28 c 0.35,0.6 0.98,1 1.72,1 0.74,0 1.38,-0.4 1.72,-1 H 14 c 1.1,0 2,-0.9 2,-2 V 16.69 C 16,16.14 16.22,15.6 16.64,15.23 18.09,13.95 19,12.08 19,10 19,6.13 15.87,3 12,3 Z m 2,16 h -4 v -1 h 4 z m 0,-2 h -4 v -1 h 4 z M 12.5,11.41 V 14 h -1 V 11.41 L 9.67,9.59 10.38,8.88 12,10.5 13.62,8.88 14.33,9.59 Z"
           inkscape:connector-curvature="0" />
      </g>
    </g>
    <g
       id="g885"
       transform="translate(157.04911,3.96875)">
      <rect
         y="130.87946"
         x="-33.639881"
         height="28.159225"
         width="20.788691"
         id="rect876"
         style="fill:#000000;fill-opacity:1;stroke:none;stroke-width:0.1;stroke-miterlimit:4;stroke-dasharray:none;stroke-opacity:1" />
      <rect
         y="123.50892"
         x="-39.6875"
         height="11.339286"
         width="33.639881"
         id="rect878"
         style="fill:#000000;fill-opacity:1;stroke:none;stroke-width:0.1;stroke-miterlimit:4;stroke-dasharray:none;stroke-opacity:1" />
      <rect
         y="122.186"
         x="-28.159225"
         height="4.3467264"
         width="10.772322"
         id="rect880"
         style="fill:#ffffff;fill-opacity:1;stroke:none;stroke-width:0.1;stroke-miterlimit:4;stroke-dasharray:none;stroke-opacity:1" />
    </g>
  </g>
</svg>
