<?xml version="1.0" encoding="UTF-8" standalone="no"?>
<svg
   xmlns:dc="http://purl.org/dc/elements/1.1/"
   xmlns:cc="http://creativecommons.org/ns#"
   xmlns:rdf="http://www.w3.org/1999/02/22-rdf-syntax-ns#"
   xmlns:svg="http://www.w3.org/2000/svg"
   xmlns="http://www.w3.org/2000/svg"
   xmlns:sodipodi="http://sodipodi.sourceforge.net/DTD/sodipodi-0.dtd"
   xmlns:inkscape="http://www.inkscape.org/namespaces/inkscape"
   width="614.28571"
   height="352.85715"
   viewBox="0 0 162.52975 93.360122"
   version="1.1"
   id="svg8"
   inkscape:version="1.0.1 (3bc2e813f5, 2020-09-07)"
   sodipodi:docname="Step5.svg">
  <defs
     id="defs2">
    <filter
       style="color-interpolation-filters:sRGB"
       inkscape:label="Invert"
       id="filter859">
      <feColorMatrix
         values="1 0 0 0 0 0 1 0 0 0 0 0 1 0 0 -0.21 -0.72 -0.07 2 0 "
         result="fbSourceGraphic"
         id="feColorMatrix857" />
      <feColorMatrix
         result="fbSourceGraphicAlpha"
         in="fbSourceGraphic"
         values="0 0 0 -1 0 0 0 0 -1 0 0 0 0 -1 0 0 0 0 1 0"
         id="feColorMatrix861" />
      <feColorMatrix
         id="feColorMatrix863"
         values="1 0 0 0 0 0 1 0 0 0 0 0 1 0 0 -0.21 -0.72 -0.07 2 0 "
         result="color2"
         in="fbSourceGraphic" />
    </filter>
  </defs>
  <sodipodi:namedview
     id="base"
     pagecolor="#ffffff"
     bordercolor="#666666"
     borderopacity="1.0"
     inkscape:pageopacity="0.0"
     inkscape:pageshadow="2"
     inkscape:zoom="1.4"
     inkscape:cx="365.46598"
     inkscape:cy="214.44031"
     inkscape:document-units="px"
     inkscape:current-layer="layer1"
     showgrid="false"
     units="px"
     inkscape:window-width="1368"
     inkscape:window-height="860"
     inkscape:window-x="-6"
     inkscape:window-y="-6"
     inkscape:window-maximized="1"
     inkscape:snap-nodes="false"
     fit-margin-top="0"
     fit-margin-left="0"
     fit-margin-right="0"
     fit-margin-bottom="0"
     inkscape:document-rotation="0" />
  <metadata
     id="metadata5">
    <rdf:RDF>
      <cc:Work
         rdf:about="">
        <dc:format>image/svg+xml</dc:format>
        <dc:type
           rdf:resource="http://purl.org/dc/dcmitype/StillImage" />
        <dc:title />
      </cc:Work>
    </rdf:RDF>
  </metadata>
  <g
     inkscape:label="Layer 1"
     inkscape:groupmode="layer"
     id="layer1"
     transform="translate(-19.65476,-98.75148)">
    <rect
       style="fill:#f9f9f9;fill-opacity:1;stroke:none;stroke-width:0.08701872;stroke-miterlimit:4;stroke-dasharray:none;stroke-opacity:1"
       id="rect819"
       width="162.52975"
       height="93.360123"
       x="19.65476"
       y="98.75148" />
    <g
       id="g896"
       transform="translate(171.03422,3.2127967)">
      <g
         transform="matrix(0.13292326,0,0,0.13292326,-139.70943,112.46495)"
         id="g970">
        <g
           id="g910"
           transform="translate(105.21198)">
          <path
             id="path908"
             d="M 249.91,102.666 C 263.52,92.182 272.339,75.767 272.339,57.3 272.339,25.705 246.634,0 215.039,0 c -31.595,0 -57.3,25.705 -57.3,57.3 0,18.467 8.819,34.882 22.429,45.366 h -41.201 v 189.711 h 32.549 V 430.092 H 257.32 V 292.377 h 33.802 V 102.666 Z"
             style="fill:#010002"
             inkscape:connector-curvature="0" />
        </g>
      </g>
      <g
         id="g912"
         transform="matrix(0.13292326,0,0,0.13292326,-121.94455,113.59888)" />
      <g
         id="g914"
         transform="matrix(0.13292326,0,0,0.13292326,-121.94455,113.59888)" />
      <g
         id="g916"
         transform="matrix(0.13292326,0,0,0.13292326,-121.94455,113.59888)" />
      <g
         id="g918"
         transform="matrix(0.13292326,0,0,0.13292326,-121.94455,113.59888)" />
      <g
         id="g920"
         transform="matrix(0.13292326,0,0,0.13292326,-121.94455,113.59888)" />
      <g
         id="g922"
         transform="matrix(0.13292326,0,0,0.13292326,-121.94455,113.59888)" />
      <g
         id="g924"
         transform="matrix(0.13292326,0,0,0.13292326,-121.94455,113.59888)" />
      <g
         id="g926"
         transform="matrix(0.13292326,0,0,0.13292326,-121.94455,113.59888)" />
      <g
         id="g928"
         transform="matrix(0.13292326,0,0,0.13292326,-121.94455,113.59888)" />
      <g
         id="g930"
         transform="matrix(0.13292326,0,0,0.13292326,-121.94455,113.59888)" />
      <g
         id="g932"
         transform="matrix(0.13292326,0,0,0.13292326,-121.94455,113.59888)" />
      <g
         id="g934"
         transform="matrix(0.13292326,0,0,0.13292326,-121.94455,113.59888)" />
      <g
         id="g936"
         transform="matrix(0.13292326,0,0,0.13292326,-121.94455,113.59888)" />
      <g
         id="g938"
         transform="matrix(0.13292326,0,0,0.13292326,-121.94455,113.59888)" />
      <g
         id="g940"
         transform="matrix(0.13292326,0,0,0.13292326,-121.94455,113.59888)" />
    </g>
    <g
       transform="translate(226.21874,3.5907729)"
       id="g878">
      <g
         id="g846"
         transform="matrix(0.13292326,0,0,0.13292326,-139.70943,112.46495)">
        <g
           transform="translate(105.21198)"
           id="g844">
          <path
             inkscape:connector-curvature="0"
             style="fill:#010002"
             d="m 249.91,102.666 c 13.61,-10.484 16.74186,-16.235624 16.74186,-46.787783 0,-31.595 -16.4569,-55.65902354 -51.61286,-55.878217 -32.30074,-0.20139147 -52.32376,26.415892 -52.32376,58.010892 0,18.467 3.84276,34.171108 17.45276,44.655108 l -8.49998,-0.71089 v 189.711 l 19.75295,0.71089 v 137.715 h 50.9703 V 292.377 l 16.7406,0.71089 -2.13267,-189.711 z"
             id="path842"
             sodipodi:nodetypes="cssscccccccccc" />
        </g>
      </g>
      <g
         transform="matrix(0.13292326,0,0,0.13292326,-121.94455,113.59888)"
         id="g848" />
      <g
         transform="matrix(0.13292326,0,0,0.13292326,-121.94455,113.59888)"
         id="g850" />
      <g
         transform="matrix(0.13292326,0,0,0.13292326,-121.94455,113.59888)"
         id="g852" />
      <g
         transform="matrix(0.13292326,0,0,0.13292326,-121.94455,113.59888)"
         id="g854" />
      <g
         transform="matrix(0.13292326,0,0,0.13292326,-121.94455,113.59888)"
         id="g856" />
      <g
         transform="matrix(0.13292326,0,0,0.13292326,-121.94455,113.59888)"
         id="g858" />
      <g
         transform="matrix(0.13292326,0,0,0.13292326,-121.94455,113.59888)"
         id="g860" />
      <g
         transform="matrix(0.13292326,0,0,0.13292326,-121.94455,113.59888)"
         id="g862" />
      <g
         transform="matrix(0.13292326,0,0,0.13292326,-121.94455,113.59888)"
         id="g864" />
      <g
         transform="matrix(0.13292326,0,0,0.13292326,-121.94455,113.59888)"
         id="g866" />
      <g
         transform="matrix(0.13292326,0,0,0.13292326,-121.94455,113.59888)"
         id="g868" />
      <g
         transform="matrix(0.13292326,0,0,0.13292326,-121.94455,113.59888)"
         id="g870" />
      <g
         transform="matrix(0.13292326,0,0,0.13292326,-121.94455,113.59888)"
         id="g872" />
      <g
         transform="matrix(0.13292326,0,0,0.13292326,-121.94455,113.59888)"
         id="g874" />
      <g
         transform="matrix(0.13292326,0,0,0.13292326,-121.94455,113.59888)"
         id="g876" />
    </g>
    <path
       style="fill:#0c04ff;fill-opacity:1;stroke:none;stroke-width:0.24439567;stroke-linecap:butt;stroke-linejoin:miter;stroke-miterlimit:4;stroke-dasharray:none;stroke-opacity:1"
       d="m 101.26338,131.78101 c -1.369569,-0.0363 -4.676781,0.82978 -5.507266,5.07042 -0.830484,4.24064 3.534067,6.0524 5.766296,6.63861 2.23224,0.5862 -1.810129,2.60608 -1.810129,2.60608 l 9.991569,0.49164 -2.17877,-6.21447 c 0,0 -1.29572,2.06898 -3.58486,1.2166 -2.28914,-0.85239 -4.182499,-2.65887 -4.029479,-4.31881 0.153019,-1.65994 1.052339,-2.5495 2.981339,-2.62865 1.92899,-0.0791 4.06587,0.66448 4.72318,0.95232 0.65731,0.28786 1.97973,1.09959 1.97973,1.09959 -5.29936,-4.89439 -6.96206,-4.87708 -8.33161,-4.91333 z"
       id="path880"
       inkscape:connector-curvature="0"
       sodipodi:nodetypes="zzzccczzzzcz" />
  </g>
</svg>
